<svg version="1.1" id="Layer_1" xmlns="http://www.w3.org/2000/svg" xmlns:xlink="http://www.w3.org/1999/xlink" x="0px" y="0px"
	 width="100%" viewBox="0 0 1200 450" enable-background="new 0 0 1200 450" xml:space="preserve">
<path fill="#FEFEFE" opacity="1.000000" stroke="none" 
	d="
M920.000000,451.000000 
	C613.333374,451.000000 307.166748,451.000000 1.000082,451.000000 
	C1.000055,301.000061 1.000055,151.000107 1.000027,1.000123 
	C400.999878,1.000082 800.999756,1.000082 1200.999756,1.000041 
	C1200.999756,150.999878 1200.999756,300.999756 1200.999878,450.999817 
	C1107.500000,451.000000 1014.000000,451.000000 920.000000,451.000000 
M437.910400,42.900974 
	C437.910400,42.900974 437.917511,42.766418 438.612244,42.674328 
	C440.116364,41.246166 441.620483,39.818001 443.124603,38.389832 
	C441.152832,38.157421 439.185059,37.843239 437.206665,37.747402 
	C436.681061,37.721943 436.122955,38.366829 434.869629,38.775089 
	C433.952057,39.016968 433.034515,39.258846 431.384369,39.304108 
	C429.164612,40.142063 426.944855,40.980019 424.046600,41.842388 
	C423.398590,42.029499 422.750610,42.216610 421.325775,42.257854 
	C414.227264,44.556419 407.128723,46.854980 399.370453,49.146194 
	C398.955719,49.281170 398.541016,49.416149 397.537354,49.342407 
	C396.845337,49.748833 396.153351,50.155258 394.959320,50.527607 
	C394.647278,50.641556 394.335266,50.755505 393.470093,50.548664 
	C387.661926,52.438507 381.853790,54.328346 375.385345,56.209538 
	C374.967529,56.336170 374.549744,56.462803 373.395691,56.367378 
	C367.832275,57.897243 361.988068,58.971313 358.746796,65.474251 
	C357.798431,66.593185 356.850098,67.712112 355.294952,68.985641 
	C353.602905,72.177368 355.507385,73.608223 358.542999,75.174385 
	C359.925964,76.181328 361.308960,77.188271 362.973907,78.824142 
	C368.117523,82.761963 371.459381,78.547279 375.618835,76.076912 
	C375.618835,76.076912 375.933319,75.791908 376.646057,75.736153 
	C382.480560,72.521645 388.315033,69.307137 394.771698,65.984291 
	C395.481415,65.535545 396.191101,65.086807 397.613861,64.691277 
	C401.937744,62.285477 406.261597,59.879673 411.219788,57.305935 
	C411.763062,56.943443 412.306366,56.580956 413.517120,56.366413 
	C417.166809,54.354595 420.816467,52.342781 425.065277,50.227463 
	C425.693085,49.742844 426.320892,49.258224 427.321716,48.577457 
	C427.593597,48.451397 427.773224,48.245056 428.441345,47.538269 
	C430.616333,46.611557 432.791290,45.684841 435.574219,44.661953 
	C436.308472,44.068733 437.042694,43.475517 437.910400,42.900974 
M62.960827,125.206696 
	C59.761600,115.970985 56.691830,106.685844 53.207508,97.558975 
	C52.745953,96.349960 50.198799,95.340904 48.575481,95.275002 
	C41.588634,94.991341 34.586002,95.056625 27.589331,95.074936 
	C24.878309,95.082039 23.195053,96.624901 24.234423,99.230873 
	C27.853590,108.305054 31.775198,117.258606 35.400410,126.849205 
	C35.643509,127.557457 35.886608,128.265717 36.050087,129.752411 
	C45.049915,154.258957 54.196342,178.712860 63.019939,203.282684 
	C83.204292,259.487213 103.240005,315.745148 123.310623,371.990479 
	C126.020607,379.584839 128.583847,387.231598 131.215042,394.854095 
	C131.766907,394.883026 132.318787,394.911926 132.870667,394.940826 
	C150.511887,342.485962 168.153107,290.031128 186.086319,236.708038 
	C176.306442,236.708038 167.693695,236.539383 159.102280,236.891312 
	C157.824905,236.943634 156.054672,239.247971 155.514801,240.848557 
	C148.872864,260.539795 142.454926,280.306427 135.881516,300.021088 
	C134.615601,303.817749 132.929153,307.474182 130.926620,312.467133 
	C128.585632,306.775024 126.651878,302.575348 125.106033,298.237366 
	C107.959396,250.120789 90.908440,201.970078 73.736359,153.862595 
	C70.743546,145.478241 67.308632,137.251694 64.009590,128.282486 
	C63.585007,127.523621 63.160419,126.764763 62.960827,125.206696 
M906.499512,213.388611 
	C921.497742,213.381485 936.496033,213.337845 951.494141,213.377579 
	C966.264709,213.416718 975.424744,220.758453 978.208191,235.161041 
	C981.101379,250.131104 973.431702,268.277802 952.416077,268.001892 
	C946.084778,267.918732 939.737122,268.234467 933.423767,267.884735 
	C928.410095,267.607086 926.900391,269.795898 927.210938,274.380524 
	C927.447021,277.865814 927.322815,281.376129 927.340576,284.875427 
	C927.382385,293.117645 927.396667,293.394104 935.548279,292.840637 
	C941.145325,292.460632 944.586243,294.264435 947.718628,299.132874 
	C954.920105,310.325409 962.853638,321.050049 970.610291,331.878479 
	C971.702271,333.402924 973.432556,335.486969 974.929260,335.539124 
	C984.483154,335.872192 994.054260,335.708832 1004.980835,335.708832 
	C993.804504,319.618622 983.431091,304.684479 972.853455,289.456238 
	C974.737366,288.364624 975.980469,287.562042 977.292908,286.895996 
	C1008.898865,270.856201 1014.438354,223.523346 984.595093,199.070389 
	C974.420959,190.733902 962.430481,188.107620 949.590698,188.123184 
	C885.766541,188.200531 821.942444,188.231674 758.118286,188.298645 
	C756.511780,188.300339 754.905579,188.527573 753.199890,188.657166 
	C753.199890,197.103195 753.199890,205.038651 753.199890,213.584961 
	C755.294861,213.584961 757.079346,213.595657 758.863708,213.583160 
	C768.195312,213.517792 777.526855,213.431610 786.858521,213.382462 
	C793.393494,213.348038 793.414795,213.369339 793.419250,219.890686 
	C793.444519,256.552216 793.579041,293.214508 793.342407,329.874420 
	C793.308411,335.152710 794.894958,336.543488 799.830322,336.090851 
	C804.458862,335.666351 809.185059,335.629150 813.811951,336.046021 
	C818.816711,336.496887 819.875610,334.481293 819.856689,329.830841 
	C819.707275,293.003479 819.867798,256.174896 819.733276,219.347427 
	C819.717102,214.915405 820.678528,213.294830 825.511719,213.335312 
	C852.172546,213.558624 878.836609,213.408951 906.499512,213.388611 
M316.983368,196.658691 
	C326.691010,173.785553 331.281830,150.052826 329.030273,125.161674 
	C328.910706,123.839775 329.019745,122.497101 329.023743,121.164101 
	C329.051025,112.131958 328.070709,111.080490 317.806427,109.905899 
	C295.249390,177.386185 272.637268,245.031281 250.025146,312.676392 
	C249.470596,312.567657 248.916031,312.458923 248.361465,312.350189 
	C247.687469,310.715363 246.922531,309.111511 246.353241,307.441010 
	C238.841400,285.398621 231.266281,263.376831 223.956268,241.267502 
	C222.753113,237.628494 221.069504,236.141647 217.246872,236.313980 
	C211.426193,236.576401 205.585632,236.369080 199.754562,236.443344 
	C197.386108,236.473526 195.020416,236.719055 192.400894,236.882324 
	C211.288269,290.483368 229.903076,343.310883 248.517868,396.138367 
	C249.077194,396.076538 249.636505,396.014679 250.195831,395.952850 
	C272.366058,329.768158 294.536316,263.583435 316.983368,196.658691 
M1142.697510,319.190002 
	C1162.371826,300.942474 1170.492310,278.062714 1166.695923,251.949554 
	C1160.895752,212.054688 1127.170288,183.923965 1086.244995,186.384232 
	C1055.234131,188.248489 1026.823853,209.448959 1016.402405,239.353439 
	C1006.392883,268.075562 1015.210815,300.281006 1038.693848,321.036621 
	C1065.132690,344.404633 1112.200928,347.158081 1142.697510,319.190002 
M679.493164,312.287689 
	C658.036255,312.287689 636.579346,312.287689 614.628418,312.287689 
	C614.628418,319.621277 614.877441,325.765839 614.544312,331.878632 
	C614.307190,336.228699 615.664368,337.608063 620.125793,337.554749 
	C640.121094,337.315674 660.121521,337.534515 680.118042,337.359680 
	C686.251404,337.306091 692.421143,336.842377 698.500183,336.019379 
	C717.358032,333.466248 733.812134,315.202789 734.676880,296.190186 
	C735.987671,267.370209 716.970337,247.576279 688.114441,247.683655 
	C680.119263,247.713409 672.097534,248.026367 664.135254,247.497910 
	C655.650208,246.934784 648.861572,240.244370 647.766418,232.421539 
	C646.730103,225.018997 651.356812,217.025314 658.969482,214.247147 
	C662.147400,213.087402 665.813354,212.923676 669.261292,212.901520 
	C689.091858,212.773956 708.923523,212.824554 728.754822,212.815048 
	C731.046997,212.813965 733.339111,212.814911 735.900940,212.814911 
	C735.900940,204.106110 735.900940,196.069473 735.900940,188.086868 
	C710.727356,188.086868 685.815063,186.621902 661.153381,188.481094 
	C634.158142,190.516174 617.899902,215.171951 623.556641,241.632904 
	C627.362915,259.437927 643.247192,272.459381 662.490112,273.185181 
	C671.977295,273.543060 681.488953,273.206329 690.982849,273.446167 
	C700.968872,273.698425 707.540466,279.107574 709.193848,288.008575 
	C711.104004,298.291321 707.120483,307.000275 697.647461,310.219727 
	C692.310974,312.033325 686.232605,311.664001 679.493164,312.287689 
M561.253784,238.614075 
	C555.998352,248.543976 550.742920,258.473907 544.949890,269.419556 
	C543.295776,266.946594 542.198669,265.587219 541.400208,264.070679 
	C529.152039,240.806686 516.978760,217.503143 504.657837,194.277863 
	C503.643585,192.365982 501.761719,189.620178 500.157562,189.531555 
	C491.603180,189.058884 483.008881,189.308884 473.654816,189.308884 
	C474.575073,191.600128 475.036713,193.153412 475.785065,194.553421 
	C493.281891,227.285583 510.762573,260.026672 528.408203,292.678558 
	C530.088257,295.787323 530.436829,298.245117 528.786621,301.440216 
	C516.034119,326.130737 503.422485,350.893951 490.760040,375.631012 
	C485.479309,385.947296 480.181152,396.254669 474.347870,407.624664 
	C482.736908,407.624664 490.158356,407.436340 497.563171,407.705719 
	C501.153076,407.836304 502.990784,406.357300 504.480499,403.326111 
	C510.791870,390.484161 517.096619,377.634155 523.702759,364.942688 
	C553.205688,308.262268 582.813904,251.636673 612.366394,194.982040 
	C613.229431,193.327484 613.894531,191.569702 615.077271,188.900024 
	C607.181580,188.900024 600.350098,189.270172 593.580994,188.779343 
	C588.447754,188.407120 585.783630,190.403473 583.599670,194.828186 
	C576.456726,209.300079 568.974243,223.604446 561.253784,238.614075 
M427.743164,189.792465 
	C411.958984,189.291321 396.174438,188.801651 380.390991,188.278168 
	C377.641693,188.186996 377.067352,189.689270 377.125885,192.069992 
	C377.252808,197.233673 377.508514,202.419724 377.174500,207.561722 
	C376.868774,212.268600 378.276581,214.053375 383.261993,213.859177 
	C393.580475,213.457184 403.936981,213.314575 414.248016,213.758362 
	C418.924133,213.959625 423.982635,214.943970 428.079559,217.082779 
	C439.417084,223.001541 443.875671,237.274307 439.480042,251.081253 
	C436.455231,260.582245 428.372162,267.030426 418.444885,267.523071 
	C412.957825,267.795349 407.448944,267.618683 401.950134,267.666138 
	C387.485565,267.790985 388.793671,265.996185 388.891907,280.776154 
	C388.981934,294.320801 387.136505,293.186707 401.228271,292.677032 
	C405.621399,292.518158 408.304443,293.916870 410.557587,297.667542 
	C415.099213,305.227844 420.884918,312.138824 424.676270,320.029327 
	C430.675934,332.515472 439.618744,337.530365 453.223419,335.137543 
	C457.294189,334.421570 461.597351,335.026947 467.204132,335.026947 
	C456.216797,318.772339 446.139618,303.864166 435.948822,288.787933 
	C459.720337,276.745056 469.514648,257.567108 465.817078,232.522385 
	C462.633881,210.961716 449.793335,196.444000 427.743164,189.792465 
M204.815094,172.601624 
	C199.841171,158.464294 194.867233,144.326965 189.893295,130.189636 
	C189.359985,130.246780 188.826675,130.303925 188.293365,130.361084 
	C186.354416,135.049973 184.159164,139.651291 182.521973,144.443283 
	C176.239532,162.831497 170.146271,181.284286 163.958221,199.704849 
	C162.531754,203.951126 160.852951,208.118484 159.572220,212.406372 
	C158.108612,217.306519 159.126633,219.078430 163.891479,219.183121 
	C180.018311,219.537476 196.151184,219.606644 212.280960,219.839706 
	C219.350342,219.941849 220.496445,218.418823 218.137665,211.542084 
	C213.771530,198.813248 209.359619,186.100143 204.815094,172.601624 
M349.378357,283.502441 
	C349.364044,298.657013 349.450867,313.812805 349.262634,328.965210 
	C349.216949,332.645172 350.322174,334.042603 354.068329,333.909180 
	C359.721588,333.707825 365.400818,333.723572 371.047882,334.032684 
	C375.029999,334.250641 376.126526,332.853546 376.100830,328.896637 
	C375.894165,297.089783 375.912842,265.281525 375.840942,233.473740 
	C375.838562,232.415482 375.605194,231.357758 375.328918,229.032455 
	C373.642395,231.234024 372.618164,232.439316 371.738129,233.741989 
	C367.268524,240.358246 363.230286,247.311020 358.295441,253.556885 
	C351.486267,262.175110 347.567841,271.377228 349.378357,283.502441 
M910.881226,237.494263 
	C903.178589,247.903473 895.449463,258.293396 887.822449,268.757721 
	C887.196838,269.616028 887.046143,270.980194 887.044556,272.109863 
	C887.016357,291.931305 887.080139,311.752991 887.024536,331.574310 
	C887.016541,334.414978 888.151062,335.379120 890.883545,335.336609 
	C896.711548,335.245972 902.548645,335.203125 908.370361,335.433472 
	C911.895874,335.572906 912.952332,334.236694 912.931946,330.783997 
	C912.761292,301.802063 912.762573,272.819153 912.628723,243.836884 
	C912.619019,241.752579 911.952148,239.671310 910.881226,237.494263 
M254.007507,14.562521 
	C251.730835,13.222324 249.454178,11.882129 246.461609,10.120510 
	C247.367737,16.149569 304.693146,76.528625 312.075348,80.129501 
	C313.827087,77.899368 315.686615,75.596138 317.477570,73.240776 
	C324.931641,63.437752 324.818054,62.785954 314.427246,55.698399 
	C294.499359,42.105602 274.564972,28.522272 254.007507,14.562521 
M345.957306,99.521393 
	C351.422485,93.893425 352.826416,87.899567 349.968750,82.395775 
	C347.123657,76.916374 340.267487,73.694115 333.824127,74.945122 
	C327.820770,76.110687 323.979614,79.770737 322.724854,85.718948 
	C321.512482,91.466156 323.583405,96.220978 328.189423,99.794098 
	C333.365356,103.809319 338.877136,103.819153 345.957306,99.521393 
z"/>
<path fill="#1D3E4F" opacity="1.000000" stroke="none" 
	d="
M905.999512,213.387894 
	C878.836609,213.408951 852.172546,213.558624 825.511719,213.335312 
	C820.678528,213.294830 819.717102,214.915405 819.733276,219.347427 
	C819.867798,256.174896 819.707275,293.003479 819.856689,329.830841 
	C819.875610,334.481293 818.816711,336.496887 813.811951,336.046021 
	C809.185059,335.629150 804.458862,335.666351 799.830322,336.090851 
	C794.894958,336.543488 793.308411,335.152710 793.342407,329.874420 
	C793.579041,293.214508 793.444519,256.552216 793.419250,219.890686 
	C793.414795,213.369339 793.393494,213.348038 786.858521,213.382462 
	C777.526855,213.431610 768.195312,213.517792 758.863708,213.583160 
	C757.079346,213.595657 755.294861,213.584961 753.199890,213.584961 
	C753.199890,205.038651 753.199890,197.103195 753.199890,188.657166 
	C754.905579,188.527573 756.511780,188.300339 758.118286,188.298645 
	C821.942444,188.231674 885.766541,188.200531 949.590698,188.123184 
	C962.430481,188.107620 974.420959,190.733902 984.595093,199.070389 
	C1014.438354,223.523346 1008.898865,270.856201 977.292908,286.895996 
	C975.980469,287.562042 974.737366,288.364624 972.853455,289.456238 
	C983.431091,304.684479 993.804504,319.618622 1004.980835,335.708832 
	C994.054260,335.708832 984.483154,335.872192 974.929260,335.539124 
	C973.432556,335.486969 971.702271,333.402924 970.610291,331.878479 
	C962.853638,321.050049 954.920105,310.325409 947.718628,299.132874 
	C944.586243,294.264435 941.145325,292.460632 935.548279,292.840637 
	C927.396667,293.394104 927.382385,293.117645 927.340576,284.875427 
	C927.322815,281.376129 927.447021,277.865814 927.210938,274.380524 
	C926.900391,269.795898 928.410095,267.607086 933.423767,267.884735 
	C939.737122,268.234467 946.084778,267.918732 952.416077,268.001892 
	C973.431702,268.277802 981.101379,250.131104 978.208191,235.161041 
	C975.424744,220.758453 966.264709,213.416718 951.494141,213.377579 
	C936.496033,213.337845 921.497742,213.381485 905.999512,213.387894 
z"/>
<path fill="#1D3D4E" opacity="1.000000" stroke="none" 
	d="
M316.844971,197.028717 
	C294.536316,263.583435 272.366058,329.768158 250.195831,395.952850 
	C249.636505,396.014679 249.077194,396.076538 248.517868,396.138367 
	C229.903076,343.310883 211.288269,290.483368 192.400894,236.882324 
	C195.020416,236.719055 197.386108,236.473526 199.754562,236.443344 
	C205.585632,236.369080 211.426193,236.576401 217.246872,236.313980 
	C221.069504,236.141647 222.753113,237.628494 223.956268,241.267502 
	C231.266281,263.376831 238.841400,285.398621 246.353241,307.441010 
	C246.922531,309.111511 247.687469,310.715363 248.361465,312.350189 
	C248.916031,312.458923 249.470596,312.567657 250.025146,312.676392 
	C272.637268,245.031281 295.249390,177.386185 317.806427,109.905899 
	C328.070709,111.080490 329.051025,112.131958 329.023743,121.164101 
	C329.019745,122.497101 328.910706,123.839775 329.030273,125.161674 
	C331.281830,150.052826 326.691010,173.785553 316.844971,197.028717 
z"/>
<path fill="#1C3D4E" opacity="1.000000" stroke="none" 
	d="
M1142.433716,319.424164 
	C1112.200928,347.158081 1065.132690,344.404633 1038.693848,321.036621 
	C1015.210815,300.281006 1006.392883,268.075562 1016.402405,239.353439 
	C1026.823853,209.448959 1055.234131,188.248489 1086.244995,186.384232 
	C1127.170288,183.923965 1160.895752,212.054688 1166.695923,251.949554 
	C1170.492310,278.062714 1162.371826,300.942474 1142.433716,319.424164 
M1088.543213,211.459900 
	C1056.930542,211.271194 1031.523926,242.907700 1038.566895,274.511169 
	C1043.634277,297.249359 1064.722046,316.129578 1091.735474,315.290741 
	C1125.689575,314.236389 1148.504761,283.733246 1140.956787,250.150955 
	C1136.088013,228.488846 1115.686890,210.169250 1088.543213,211.459900 
z"/>
<path fill="#1C3D4E" opacity="1.000000" stroke="none" 
	d="
M64.077911,128.952271 
	C67.308632,137.251694 70.743546,145.478241 73.736359,153.862595 
	C90.908440,201.970078 107.959396,250.120789 125.106033,298.237366 
	C126.651878,302.575348 128.585632,306.775024 130.926620,312.467133 
	C132.929153,307.474182 134.615601,303.817749 135.881516,300.021088 
	C142.454926,280.306427 148.872864,260.539795 155.514801,240.848557 
	C156.054672,239.247971 157.824905,236.943634 159.102280,236.891312 
	C167.693695,236.539383 176.306442,236.708038 186.086319,236.708038 
	C168.153107,290.031128 150.511887,342.485962 132.870667,394.940826 
	C132.318787,394.911926 131.766907,394.883026 131.215042,394.854095 
	C128.583847,387.231598 126.020607,379.584839 123.310623,371.990479 
	C103.240005,315.745148 83.204292,259.487213 63.019939,203.282684 
	C54.196342,178.712860 45.049915,154.258957 36.549522,129.369843 
	C46.058613,128.975601 55.068260,128.963928 64.077911,128.952271 
z"/>
<path fill="#1C3D4E" opacity="1.000000" stroke="none" 
	d="
M679.990784,312.282867 
	C686.232605,311.664001 692.310974,312.033325 697.647461,310.219727 
	C707.120483,307.000275 711.104004,298.291321 709.193848,288.008575 
	C707.540466,279.107574 700.968872,273.698425 690.982849,273.446167 
	C681.488953,273.206329 671.977295,273.543060 662.490112,273.185181 
	C643.247192,272.459381 627.362915,259.437927 623.556641,241.632904 
	C617.899902,215.171951 634.158142,190.516174 661.153381,188.481094 
	C685.815063,186.621902 710.727356,188.086868 735.900940,188.086868 
	C735.900940,196.069473 735.900940,204.106110 735.900940,212.814911 
	C733.339111,212.814911 731.046997,212.813965 728.754822,212.815048 
	C708.923523,212.824554 689.091858,212.773956 669.261292,212.901520 
	C665.813354,212.923676 662.147400,213.087402 658.969482,214.247147 
	C651.356812,217.025314 646.730103,225.018997 647.766418,232.421539 
	C648.861572,240.244370 655.650208,246.934784 664.135254,247.497910 
	C672.097534,248.026367 680.119263,247.713409 688.114441,247.683655 
	C716.970337,247.576279 735.987671,267.370209 734.676880,296.190186 
	C733.812134,315.202789 717.358032,333.466248 698.500183,336.019379 
	C692.421143,336.842377 686.251404,337.306091 680.118042,337.359680 
	C660.121521,337.534515 640.121094,337.315674 620.125793,337.554749 
	C615.664368,337.608063 614.307190,336.228699 614.544312,331.878632 
	C614.877441,325.765839 614.628418,319.621277 614.628418,312.287689 
	C636.579346,312.287689 658.036255,312.287689 679.990784,312.282867 
z"/>
<path fill="#1D3D4E" opacity="1.000000" stroke="none" 
	d="
M561.438049,238.293671 
	C568.974243,223.604446 576.456726,209.300079 583.599670,194.828186 
	C585.783630,190.403473 588.447754,188.407120 593.580994,188.779343 
	C600.350098,189.270172 607.181580,188.900024 615.077271,188.900024 
	C613.894531,191.569702 613.229431,193.327484 612.366394,194.982040 
	C582.813904,251.636673 553.205688,308.262268 523.702759,364.942688 
	C517.096619,377.634155 510.791870,390.484161 504.480499,403.326111 
	C502.990784,406.357300 501.153076,407.836304 497.563171,407.705719 
	C490.158356,407.436340 482.736908,407.624664 474.347870,407.624664 
	C480.181152,396.254669 485.479309,385.947296 490.760040,375.631012 
	C503.422485,350.893951 516.034119,326.130737 528.786621,301.440216 
	C530.436829,298.245117 530.088257,295.787323 528.408203,292.678558 
	C510.762573,260.026672 493.281891,227.285583 475.785065,194.553421 
	C475.036713,193.153412 474.575073,191.600128 473.654816,189.308884 
	C483.008881,189.308884 491.603180,189.058884 500.157562,189.531555 
	C501.761719,189.620178 503.643585,192.365982 504.657837,194.277863 
	C516.978760,217.503143 529.152039,240.806686 541.400208,264.070679 
	C542.198669,265.587219 543.295776,266.946594 544.949890,269.419556 
	C550.742920,258.473907 555.998352,248.543976 561.438049,238.293671 
z"/>
<path fill="#1D3D4F" opacity="1.000000" stroke="none" 
	d="
M428.140472,189.904388 
	C449.793335,196.444000 462.633881,210.961716 465.817078,232.522385 
	C469.514648,257.567108 459.720337,276.745056 435.948822,288.787933 
	C446.139618,303.864166 456.216797,318.772339 467.204132,335.026947 
	C461.597351,335.026947 457.294189,334.421570 453.223419,335.137543 
	C439.618744,337.530365 430.675934,332.515472 424.676270,320.029327 
	C420.884918,312.138824 415.099213,305.227844 410.557587,297.667542 
	C408.304443,293.916870 405.621399,292.518158 401.228271,292.677032 
	C387.136505,293.186707 388.981934,294.320801 388.891907,280.776154 
	C388.793671,265.996185 387.485565,267.790985 401.950134,267.666138 
	C407.448944,267.618683 412.957825,267.795349 418.444885,267.523071 
	C428.372162,267.030426 436.455231,260.582245 439.480042,251.081253 
	C443.875671,237.274307 439.417084,223.001541 428.079559,217.082779 
	C423.982635,214.943970 418.924133,213.959625 414.248016,213.758362 
	C403.936981,213.314575 393.580475,213.457184 383.261993,213.859177 
	C378.276581,214.053375 376.868774,212.268600 377.174500,207.561722 
	C377.508514,202.419724 377.252808,197.233673 377.125885,192.069992 
	C377.067352,189.689270 377.641693,188.186996 380.390991,188.278168 
	C396.174438,188.801651 411.958984,189.291321 428.140472,189.904388 
z"/>
<path fill="#DA9D4F" opacity="1.000000" stroke="none" 
	d="
M204.890945,172.991058 
	C209.359619,186.100143 213.771530,198.813248 218.137665,211.542084 
	C220.496445,218.418823 219.350342,219.941849 212.280960,219.839706 
	C196.151184,219.606644 180.018311,219.537476 163.891479,219.183121 
	C159.126633,219.078430 158.108612,217.306519 159.572220,212.406372 
	C160.852951,208.118484 162.531754,203.951126 163.958221,199.704849 
	C170.146271,181.284286 176.239532,162.831497 182.521973,144.443283 
	C184.159164,139.651291 186.354416,135.049973 188.293365,130.361084 
	C188.826675,130.303925 189.359985,130.246780 189.893295,130.189636 
	C194.867233,144.326965 199.841171,158.464294 204.890945,172.991058 
z"/>
<path fill="#214151" opacity="1.000000" stroke="none" 
	d="
M349.377960,283.003235 
	C347.567841,271.377228 351.486267,262.175110 358.295441,253.556885 
	C363.230286,247.311020 367.268524,240.358246 371.738129,233.741989 
	C372.618164,232.439316 373.642395,231.234024 375.328918,229.032455 
	C375.605194,231.357758 375.838562,232.415482 375.840942,233.473740 
	C375.912842,265.281525 375.894165,297.089783 376.100830,328.896637 
	C376.126526,332.853546 375.029999,334.250641 371.047882,334.032684 
	C365.400818,333.723572 359.721588,333.707825 354.068329,333.909180 
	C350.322174,334.042603 349.216949,332.645172 349.262634,328.965210 
	C349.450867,313.812805 349.364044,298.657013 349.377960,283.003235 
z"/>
<path fill="#1E3E4F" opacity="1.000000" stroke="none" 
	d="
M911.236084,237.541443 
	C911.952148,239.671310 912.619019,241.752579 912.628723,243.836884 
	C912.762573,272.819153 912.761292,301.802063 912.931946,330.783997 
	C912.952332,334.236694 911.895874,335.572906 908.370361,335.433472 
	C902.548645,335.203125 896.711548,335.245972 890.883545,335.336609 
	C888.151062,335.379120 887.016541,334.414978 887.024536,331.574310 
	C887.080139,311.752991 887.016357,291.931305 887.044556,272.109863 
	C887.046143,270.980194 887.196838,269.616028 887.822449,268.757721 
	C895.449463,258.293396 903.178589,247.903473 911.236084,237.541443 
z"/>
<path fill="#244455" opacity="1.000000" stroke="none" 
	d="
M254.320404,14.748765 
	C274.564972,28.522272 294.499359,42.105602 314.427246,55.698399 
	C324.818054,62.785954 324.931641,63.437752 317.477570,73.240776 
	C315.686615,75.596138 313.827087,77.899368 312.075348,80.129501 
	C304.693146,76.528625 247.367737,16.149569 246.461609,10.120510 
	C249.454178,11.882129 251.730835,13.222324 254.320404,14.748765 
z"/>
<path fill="#224252" opacity="1.000000" stroke="none" 
	d="
M362.691925,78.195221 
	C361.308960,77.188271 359.925964,76.181328 358.277100,74.595795 
	C357.308075,72.288483 356.604919,70.559761 355.901764,68.831039 
	C356.850098,67.712112 357.798431,66.593185 359.334106,65.248672 
	C364.658264,62.211872 369.395111,59.400658 374.131927,56.589439 
	C374.549744,56.462803 374.967529,56.336170 375.953857,56.440453 
	C382.356018,54.737396 388.189606,52.803421 394.023224,50.869450 
	C394.335266,50.755505 394.647278,50.641556 395.525269,50.675941 
	C396.769592,50.399887 397.447937,49.975498 398.126282,49.551117 
	C398.541016,49.416149 398.955719,49.281170 399.926849,49.381783 
	C404.123535,48.633331 407.818451,47.812668 411.388916,46.619724 
	C415.023926,45.405224 418.536438,43.824238 422.102600,42.403725 
	C422.750610,42.216610 423.398590,42.029499 424.775574,41.909111 
	C427.708710,41.150799 429.912811,40.325764 432.116943,39.500725 
	C433.034515,39.258846 433.952057,39.016968 435.595581,38.867073 
	C439.686890,39.040520 439.264008,40.709885 437.917511,42.766418 
	C437.917511,42.766418 437.910400,42.900974 437.535950,42.874313 
	C436.429749,43.484478 435.697998,44.121304 434.966278,44.758125 
	C432.791290,45.684841 430.616333,46.611557 427.917084,47.768665 
	C427.075134,48.159977 426.927094,48.418156 426.948669,48.773605 
	C426.320892,49.258224 425.693085,49.742844 424.384338,50.184780 
	C420.085480,52.167553 416.467560,54.193005 412.849640,56.218460 
	C412.306366,56.580956 411.763062,56.943443 410.526764,57.265511 
	C405.522766,59.696083 401.211792,62.167072 396.900818,64.638062 
	C396.191101,65.086807 395.481415,65.535545 394.083679,65.997467 
	C387.574890,69.271057 381.754089,72.531479 375.933319,75.791908 
	C375.933319,75.791908 375.618835,76.076912 375.023621,76.047554 
	C370.562408,76.992706 367.115082,80.224380 362.691925,78.195221 
z"/>
<path fill="#D59C53" opacity="1.000000" stroke="none" 
	d="
M35.581821,126.258018 
	C31.775198,117.258606 27.853590,108.305054 24.234423,99.230873 
	C23.195053,96.624901 24.878309,95.082039 27.589331,95.074936 
	C34.586002,95.056625 41.588634,94.991341 48.575481,95.275002 
	C50.198799,95.340904 52.745953,96.349960 53.207508,97.558975 
	C56.691830,106.685844 59.761600,115.970985 62.414436,125.718079 
	C53.105968,126.238983 44.343895,126.248497 35.581821,126.258018 
z"/>
<path fill="#214152" opacity="1.000000" stroke="none" 
	d="
M345.670593,99.750824 
	C338.877136,103.819153 333.365356,103.809319 328.189423,99.794098 
	C323.583405,96.220978 321.512482,91.466156 322.724854,85.718948 
	C323.979614,79.770737 327.820770,76.110687 333.824127,74.945122 
	C340.267487,73.694115 347.123657,76.916374 349.968750,82.395775 
	C352.826416,87.899567 351.422485,93.893425 345.670593,99.750824 
z"/>
<path fill="#313C36" opacity="1.000000" stroke="none" 
	d="
M35.491116,126.553612 
	C44.343895,126.248497 53.105968,126.238983 62.301941,126.117691 
	C63.160419,126.764763 63.585007,127.523621 64.043747,128.617371 
	C55.068260,128.963928 46.058613,128.975601 36.589333,128.980621 
	C35.886608,128.265717 35.643509,127.557457 35.491116,126.553612 
z"/>
<path fill="#596C74" opacity="1.000000" stroke="none" 
	d="
M421.714172,42.330791 
	C418.536438,43.824238 415.023926,45.405224 411.388916,46.619724 
	C407.818451,47.812668 404.123535,48.633331 400.256714,49.385452 
	C407.128723,46.854980 414.227264,44.556419 421.714172,42.330791 
z"/>
<path fill="#596C74" opacity="1.000000" stroke="none" 
	d="
M376.289673,75.764030 
	C381.754089,72.531479 387.574890,69.271057 393.772583,66.051636 
	C388.315033,69.307137 382.480560,72.521645 376.289673,75.764030 
z"/>
<path fill="#596C74" opacity="1.000000" stroke="none" 
	d="
M393.746643,50.709053 
	C388.189606,52.803421 382.356018,54.737396 376.283997,56.444778 
	C381.853790,54.328346 387.661926,52.438507 393.746643,50.709053 
z"/>
<path fill="#596C74" opacity="1.000000" stroke="none" 
	d="
M373.763794,56.478409 
	C369.395111,59.400658 364.658264,62.211872 359.584412,65.053192 
	C361.988068,58.971313 367.832275,57.897243 373.763794,56.478409 
z"/>
<path fill="#596C74" opacity="1.000000" stroke="none" 
	d="
M438.264893,42.720375 
	C439.264008,40.709885 439.686890,39.040520 435.950684,38.831497 
	C436.122955,38.366829 436.681061,37.721943 437.206665,37.747402 
	C439.185059,37.843239 441.152832,38.157421 443.124603,38.389832 
	C441.620483,39.818001 440.116364,41.246166 438.264893,42.720375 
z"/>
<path fill="#596C74" opacity="1.000000" stroke="none" 
	d="
M397.257324,64.664673 
	C401.211792,62.167072 405.522766,59.696083 410.209595,57.349480 
	C406.261597,59.879673 401.937744,62.285477 397.257324,64.664673 
z"/>
<path fill="#596C74" opacity="1.000000" stroke="none" 
	d="
M362.832916,78.509682 
	C367.115082,80.224380 370.562408,76.992706 374.812683,76.070488 
	C371.459381,78.547279 368.117523,82.761963 362.832916,78.509682 
z"/>
<path fill="#596C74" opacity="1.000000" stroke="none" 
	d="
M413.183380,56.292435 
	C416.467560,54.193005 420.085480,52.167553 424.084778,50.236534 
	C420.816467,52.342781 417.166809,54.354595 413.183380,56.292435 
z"/>
<path fill="#596C74" opacity="1.000000" stroke="none" 
	d="
M355.598358,68.908340 
	C356.604919,70.559761 357.308075,72.288483 358.053101,74.360916 
	C355.507385,73.608223 353.602905,72.177368 355.598358,68.908340 
z"/>
<path fill="#596C74" opacity="1.000000" stroke="none" 
	d="
M431.750671,39.402420 
	C429.912811,40.325764 427.708710,41.150799 425.114838,41.896904 
	C426.944855,40.980019 429.164612,40.142063 431.750671,39.402420 
z"/>
<path fill="#596C74" opacity="1.000000" stroke="none" 
	d="
M435.270264,44.710041 
	C435.697998,44.121304 436.429749,43.484478 437.469208,42.864979 
	C437.042694,43.475517 436.308472,44.068733 435.270264,44.710041 
z"/>
<path fill="#596C74" opacity="1.000000" stroke="none" 
	d="
M397.831818,49.446758 
	C397.447937,49.975498 396.769592,50.399887 395.776306,50.692982 
	C396.153351,50.155258 396.845337,49.748833 397.831818,49.446758 
z"/>
<path fill="#596C74" opacity="1.000000" stroke="none" 
	d="
M427.135193,48.675529 
	C426.927094,48.418156 427.075134,48.159977 427.626709,47.978748 
	C427.773224,48.245056 427.593597,48.451397 427.135193,48.675529 
z"/>
<path fill="#FCFDFD" opacity="1.000000" stroke="none" 
	d="
M1089.034302,211.454437 
	C1115.686890,210.169250 1136.088013,228.488846 1140.956787,250.150955 
	C1148.504761,283.733246 1125.689575,314.236389 1091.735474,315.290741 
	C1064.722046,316.129578 1043.634277,297.249359 1038.566895,274.511169 
	C1031.523926,242.907700 1056.930542,211.271194 1089.034302,211.454437 
z"/>
</svg>